<svg width="101" height="20" viewBox="0 0 101 20" fill="none" xmlns="http://www.w3.org/2000/svg">
<path d="M0.584 19V6.016H3.176V8.824L2.84 8.392C3.112 7.512 3.608 6.848 4.328 6.4C5.048 5.952 5.872 5.728 6.8 5.728C7.84 5.728 8.76 6.008 9.56 6.568C10.376 7.112 10.92 7.84 11.192 8.752L10.424 8.824C10.808 7.784 11.392 7.008 12.176 6.496C12.976 5.984 13.888 5.728 14.912 5.728C15.808 5.728 16.616 5.936 17.336 6.352C18.072 6.768 18.656 7.344 19.088 8.08C19.52 8.816 19.736 9.656 19.736 10.6V19H17.024V11.344C17.024 10.688 16.904 10.136 16.664 9.688C16.44 9.224 16.12 8.872 15.704 8.632C15.304 8.376 14.832 8.248 14.288 8.248C13.744 8.248 13.264 8.376 12.848 8.632C12.432 8.872 12.104 9.224 11.864 9.688C11.624 10.152 11.504 10.704 11.504 11.344V19H8.816V11.344C8.816 10.688 8.696 10.136 8.456 9.688C8.232 9.224 7.912 8.872 7.496 8.632C7.096 8.376 6.616 8.248 6.056 8.248C5.512 8.248 5.032 8.376 4.616 8.632C4.2 8.872 3.872 9.224 3.632 9.688C3.408 10.152 3.296 10.704 3.296 11.344V19H0.584ZM26.3267 19.288C25.4467 19.288 24.6707 19.136 23.9987 18.832C23.3427 18.512 22.8307 18.08 22.4627 17.536C22.0947 16.976 21.9107 16.32 21.9107 15.568C21.9107 14.864 22.0627 14.232 22.3667 13.672C22.6867 13.112 23.1747 12.64 23.8307 12.256C24.4867 11.872 25.3107 11.6 26.3027 11.44L30.8147 10.696V12.832L26.8307 13.528C26.1107 13.656 25.5827 13.888 25.2467 14.224C24.9107 14.544 24.7427 14.96 24.7427 15.472C24.7427 15.968 24.9267 16.376 25.2947 16.696C25.6787 17 26.1667 17.152 26.7587 17.152C27.4947 17.152 28.1347 16.992 28.6787 16.672C29.2387 16.352 29.6707 15.928 29.9747 15.4C30.2787 14.856 30.4307 14.256 30.4307 13.6V10.264C30.4307 9.624 30.1907 9.104 29.7107 8.704C29.2467 8.288 28.6227 8.08 27.8387 8.08C27.1187 8.08 26.4867 8.272 25.9427 8.656C25.4147 9.024 25.0227 9.504 24.7667 10.096L22.5107 8.968C22.7507 8.328 23.1427 7.768 23.6867 7.288C24.2307 6.792 24.8627 6.408 25.5827 6.136C26.3187 5.864 27.0947 5.728 27.9107 5.728C28.9347 5.728 29.8387 5.92 30.6227 6.304C31.4227 6.688 32.0387 7.224 32.4707 7.912C32.9187 8.584 33.1427 9.368 33.1427 10.264V19H30.5507V16.648L31.1027 16.72C30.7987 17.248 30.4067 17.704 29.9267 18.088C29.4627 18.472 28.9267 18.768 28.3187 18.976C27.7267 19.184 27.0627 19.288 26.3267 19.288ZM36.1137 19V0.831999H38.8257V13L37.7697 12.736L44.2737 6.016H47.6577L42.7617 11.224L47.8737 19H44.7537L40.1937 12.112L41.8017 11.896L37.9617 15.976L38.8257 14.176V19H36.1137ZM55.3925 19.288C54.0965 19.288 52.9445 18.992 51.9365 18.4C50.9445 17.792 50.1685 16.976 49.6085 15.952C49.0485 14.912 48.7685 13.752 48.7685 12.472C48.7685 11.16 49.0485 10 49.6085 8.992C50.1845 7.984 50.9525 7.192 51.9125 6.616C52.8725 6.024 53.9605 5.728 55.1765 5.728C56.1525 5.728 57.0245 5.896 57.7925 6.232C58.5605 6.568 59.2085 7.032 59.7365 7.624C60.2645 8.2 60.6645 8.864 60.9365 9.616C61.2245 10.368 61.3685 11.168 61.3685 12.016C61.3685 12.224 61.3605 12.44 61.3445 12.664C61.3285 12.888 61.2965 13.096 61.2485 13.288H50.9045V11.128H59.7125L58.4165 12.112C58.5765 11.328 58.5205 10.632 58.2485 10.024C57.9925 9.4 57.5925 8.912 57.0485 8.56C56.5205 8.192 55.8965 8.008 55.1765 8.008C54.4565 8.008 53.8165 8.192 53.2565 8.56C52.6965 8.912 52.2645 9.424 51.9605 10.096C51.6565 10.752 51.5365 11.552 51.6005 12.496C51.5205 13.376 51.6405 14.144 51.9605 14.8C52.2965 15.456 52.7605 15.968 53.3525 16.336C53.9605 16.704 54.6485 16.888 55.4165 16.888C56.2005 16.888 56.8645 16.712 57.4085 16.36C57.9685 16.008 58.4085 15.552 58.7285 14.992L60.9365 16.072C60.6805 16.68 60.2805 17.232 59.7365 17.728C59.2085 18.208 58.5685 18.592 57.8165 18.88C57.0805 19.152 56.2725 19.288 55.3925 19.288ZM69.4313 19.144C68.0713 19.144 67.0153 18.76 66.2633 17.992C65.5113 17.224 65.1353 16.144 65.1353 14.752V8.464H62.8553V6.016H63.2153C63.8233 6.016 64.2953 5.84 64.6313 5.488C64.9673 5.136 65.1353 4.656 65.1353 4.048V3.04H67.8473V6.016H70.7993V8.464H67.8473V14.632C67.8473 15.08 67.9193 15.464 68.0633 15.784C68.2073 16.088 68.4393 16.328 68.7593 16.504C69.0793 16.664 69.4953 16.744 70.0073 16.744C70.1353 16.744 70.2793 16.736 70.4393 16.72C70.5993 16.704 70.7513 16.688 70.8953 16.672V19C70.6713 19.032 70.4233 19.064 70.1513 19.096C69.8793 19.128 69.6393 19.144 69.4313 19.144ZM97.5559 19V15.88H100.316V19H97.5559Z" fill="#00A650"/>
<path d="M79.4378 19.288C78.1418 19.288 76.9898 18.992 75.9818 18.4C74.9898 17.792 74.2138 16.976 73.6538 15.952C73.0938 14.912 72.8138 13.752 72.8138 12.472C72.8138 11.16 73.0938 10 73.6538 8.992C74.2298 7.984 74.9978 7.192 75.9578 6.616C76.9178 6.024 78.0058 5.728 79.2218 5.728C80.1978 5.728 81.0698 5.896 81.8378 6.232C82.6058 6.568 83.2538 7.032 83.7818 7.624C84.3098 8.2 84.7098 8.864 84.9818 9.616C85.2698 10.368 85.4138 11.168 85.4138 12.016C85.4138 12.224 85.4058 12.44 85.3898 12.664C85.3738 12.888 85.3418 13.096 85.2938 13.288H74.9498V11.128H83.7578L82.4618 12.112C82.6218 11.328 82.5658 10.632 82.2938 10.024C82.0378 9.4 81.6378 8.912 81.0938 8.56C80.5658 8.192 79.9418 8.008 79.2218 8.008C78.5018 8.008 77.8618 8.192 77.3018 8.56C76.7418 8.912 76.3098 9.424 76.0058 10.096C75.7018 10.752 75.5818 11.552 75.6458 12.496C75.5658 13.376 75.6858 14.144 76.0058 14.8C76.3418 15.456 76.8058 15.968 77.3978 16.336C78.0058 16.704 78.6938 16.888 79.4618 16.888C80.2458 16.888 80.9098 16.712 81.4538 16.36C82.0138 16.008 82.4538 15.552 82.7738 14.992L84.9818 16.072C84.7258 16.68 84.3258 17.232 83.7818 17.728C83.2538 18.208 82.6138 18.592 81.8618 18.88C81.1258 19.152 80.3178 19.288 79.4378 19.288ZM87.8606 19V6.016H90.4526V8.632L90.2126 8.248C90.5006 7.4 90.9646 6.792 91.6046 6.424C92.2446 6.04 93.0126 5.848 93.9086 5.848H94.7006V8.32H93.5726C92.6766 8.32 91.9486 8.6 91.3886 9.16C90.8446 9.704 90.5726 10.488 90.5726 11.512V19H87.8606Z" fill="#FFD600"/>
</svg>
