<svg width="38" height="38" viewBox="0 0 38 38" fill="none" xmlns="http://www.w3.org/2000/svg">
<g clip-path="url(#clip0_1_328)">
<path fill-rule="evenodd" clip-rule="evenodd" d="M36.5867 19.0909C36.5867 17.7673 36.4679 16.4946 36.2473 15.2728H18.6667V22.4934H28.7127C28.28 24.8267 26.9649 26.8037 24.9879 28.1273V32.8109H31.0206C34.5503 29.5612 36.5867 24.7758 36.5867 19.0909Z" fill="#4285F4"/>
<path fill-rule="evenodd" clip-rule="evenodd" d="M18.6667 37.3333C23.7067 37.3333 27.9321 35.6618 31.0206 32.8109L24.9879 28.1273C23.3164 29.2473 21.1782 29.9091 18.6667 29.9091C13.8049 29.9091 9.68971 26.6254 8.22183 22.2133H1.98547V27.0497C5.05698 33.1503 11.3697 37.3333 18.6667 37.3333Z" fill="#34A853"/>
<path fill-rule="evenodd" clip-rule="evenodd" d="M8.22182 22.2134C7.84848 21.0934 7.63636 19.897 7.63636 18.6667C7.63636 17.4364 7.84848 16.24 8.22182 15.12V10.2837H1.98545C0.721212 12.8037 0 15.6546 0 18.6667C0 21.6788 0.721212 24.5297 1.98545 27.0497L8.22182 22.2134Z" fill="#FBBC05"/>
<path fill-rule="evenodd" clip-rule="evenodd" d="M18.6667 7.42424C21.4073 7.42424 23.8679 8.36606 25.8024 10.2158L31.1564 4.86182C27.9236 1.8497 23.6982 0 18.6667 0C11.3697 0 5.05698 4.18303 1.98547 10.2836L8.22183 15.12C9.68971 10.7079 13.8049 7.42424 18.6667 7.42424Z" fill="#EA4335"/>
</g>
<defs>
<clipPath id="clip0_1_328">
<rect width="37.3333" height="37.3333" rx="8" fill="white"/>
</clipPath>
</defs>
</svg>
