<svg width="38" height="38" viewBox="0 0 38 38" fill="none" xmlns="http://www.w3.org/2000/svg">
<path d="M37.2255 10.9689C37.1358 8.98132 36.8147 7.62142 36.3592 6.43337C35.8813 5.20797 35.2466 4.16189 34.2086 3.13076C33.1706 2.09963 32.1326 1.44956 30.908 0.978829C29.7206 0.515567 28.3615 0.201743 26.3752 0.11208C24.3814 0.0224159 23.7466 0 18.6837 0C13.6132 0 12.9785 0.0224159 10.9922 0.11208C9.0058 0.201743 7.64672 0.523039 6.45939 0.978829C5.22725 1.45704 4.1818 2.09215 3.15129 3.13076C2.12077 4.16936 1.4711 5.20797 1.00065 6.43337C0.545132 7.62142 0.22403 8.98132 0.13442 10.9689C0.04481 12.9639 0.0224075 13.599 0.0224075 18.665C0.0224075 23.7385 0.04481 24.3736 0.13442 26.3611C0.22403 28.3487 0.545132 29.7086 1.00065 30.8966C1.47857 32.122 2.11331 33.1681 3.15129 34.1992C4.1818 35.2379 5.22725 35.8804 6.45192 36.3512C7.63925 36.8144 8.99833 37.1283 10.9847 37.2179C12.9785 37.3076 13.6132 37.33 18.6762 37.33C23.7466 37.33 24.3814 37.3076 26.3677 37.2179C28.3541 37.1283 29.7132 36.807 30.9005 36.3512C32.1252 35.873 33.1706 35.2379 34.2011 34.1992C35.2316 33.1606 35.8813 32.122 36.3518 30.8966C36.8147 29.7086 37.1284 28.3487 37.218 26.3611C37.3076 24.3661 37.33 23.731 37.33 18.665C37.33 13.599 37.3151 12.9564 37.2255 10.9689ZM33.8726 26.2117C33.7904 28.0349 33.4842 29.0286 33.2304 29.6787C32.8943 30.5454 32.4836 31.1731 31.8265 31.8306C31.1693 32.4882 30.5495 32.8842 29.6758 33.2354C29.0187 33.4894 28.0255 33.7958 26.2109 33.878C24.247 33.9676 23.657 33.99 18.6687 33.99C13.6805 33.99 13.0905 33.9676 11.1266 33.878C9.3045 33.7958 8.31133 33.4894 7.66165 33.2354C6.79542 32.8991 6.16815 32.4882 5.51102 31.8306C4.85388 31.1731 4.4581 30.5529 4.10713 29.6787C3.85323 29.0212 3.54706 28.0274 3.46492 26.2117C3.37531 24.2466 3.35291 23.6563 3.35291 18.665C3.35291 13.6737 3.37531 13.0834 3.46492 11.1183C3.54706 9.29514 3.85323 8.30137 4.10713 7.65131C4.44316 6.78456 4.85388 6.15691 5.51102 5.49938C6.16815 4.84184 6.78796 4.44583 7.66165 4.09464C8.31879 3.8406 9.31197 3.53425 11.1266 3.45205C13.0905 3.36239 13.6805 3.33997 18.6687 3.33997C23.657 3.33997 24.247 3.36239 26.2109 3.45205C28.033 3.53425 29.0262 3.8406 29.6758 4.09464C30.5421 4.43088 31.1693 4.84184 31.8265 5.49938C32.4836 6.15691 32.8794 6.77708 33.2304 7.65131C33.4842 8.30884 33.7904 9.30261 33.8726 11.1183C33.9622 13.0834 33.9846 13.6737 33.9846 18.665C33.9846 23.6563 33.9547 24.2466 33.8726 26.2117Z" fill="url(#paint0_linear_1_333)"/>
<path d="M18.6688 9.07098C13.3669 9.07098 9.08054 13.3674 9.08054 18.665C9.08054 23.9701 13.3744 28.259 18.6688 28.259C23.9633 28.259 28.2571 23.9552 28.2571 18.665C28.2571 13.3599 23.9707 9.07098 18.6688 9.07098ZM18.6688 24.8892C15.2338 24.8892 12.4484 22.1021 12.4484 18.665C12.4484 15.2279 15.2338 12.4408 18.6688 12.4408C22.1039 12.4408 24.8892 15.2279 24.8892 18.665C24.8892 22.1021 22.1039 24.8892 18.6688 24.8892Z" fill="url(#paint1_linear_1_333)"/>
<path d="M28.6304 10.939C29.8677 10.939 30.8707 9.93538 30.8707 8.69738C30.8707 7.45938 29.8677 6.45579 28.6304 6.45579C27.3932 6.45579 26.3902 7.45938 26.3902 8.69738C26.3902 9.93538 27.3932 10.939 28.6304 10.939Z" fill="#BC30A0"/>
<path d="M0 18.665C0 23.7385 0.0224025 24.3736 0.112012 26.3611C0.201622 28.3487 0.522725 29.7086 0.978242 30.8966C1.45616 32.122 2.0909 33.1681 3.12888 34.1992C4.15939 35.2304 5.20484 35.8804 6.42951 36.3512C7.61684 36.8144 8.97593 37.1283 10.9623 37.2179C12.9561 37.3076 13.5908 37.33 18.6538 37.33C23.7242 37.33 24.359 37.3076 26.3453 37.2179C28.3317 37.1283 29.6908 36.807 30.8781 36.3512C32.1028 35.873 33.1482 35.2379 34.1787 34.1992C35.2092 33.1681 35.8589 32.122 36.3294 30.8966C36.7923 29.7086 37.106 28.3487 37.1956 26.3611C37.2852 24.3661 37.3076 23.731 37.3076 18.665C37.3076 13.5915 37.2852 12.9564 37.1956 10.9689C37.106 8.98132 36.7849 7.62142 36.3294 6.43337C35.8514 5.20797 35.2167 4.16189 34.1787 3.13076C33.1557 2.09215 32.1102 1.44956 30.8856 0.978829C29.6982 0.515567 28.3391 0.201743 26.3528 0.11208C24.359 0.0224159 23.7242 0 18.6613 0C13.5908 0 12.9561 0.0224159 10.9697 0.11208C8.98339 0.201743 7.62431 0.523039 6.43698 0.978829C5.21231 1.45704 4.16686 2.09215 3.13635 3.13076C2.10583 4.16936 1.45616 5.20797 0.985709 6.43337C0.522725 7.62142 0.201622 8.98132 0.112012 10.9689C0.0224025 12.9564 0 13.5915 0 18.665ZM3.36784 18.665C3.36784 13.6812 3.39024 13.0834 3.47985 11.1183C3.56199 9.29514 3.86816 8.30137 4.12206 7.65131C4.45809 6.78456 4.86881 6.15691 5.52595 5.49938C6.18308 4.84184 6.80289 4.44583 7.67658 4.09464C8.33372 3.8406 9.3269 3.53425 11.1415 3.45205C13.1055 3.36239 13.6954 3.33997 18.6837 3.33997C23.672 3.33997 24.2619 3.36239 26.2258 3.45205C28.0479 3.53425 29.0411 3.8406 29.6908 4.09464C30.557 4.43088 31.1843 4.84184 31.8414 5.49938C32.4985 6.15691 32.8943 6.77708 33.2453 7.65131C33.4992 8.30884 33.8053 9.30261 33.8875 11.1183C33.9771 13.0834 33.9995 13.6737 33.9995 18.665C33.9995 23.6563 33.9771 24.2466 33.8875 26.2117C33.8053 28.0349 33.4992 29.0286 33.2453 29.6787C32.9092 30.5454 32.4985 31.1731 31.8414 31.8306C31.1843 32.4882 30.5645 32.8842 29.6908 33.2354C29.0336 33.4894 28.0404 33.7958 26.2258 33.878C24.2619 33.9676 23.672 33.99 18.6837 33.99C13.6954 33.99 13.1055 33.9676 11.1415 33.878C9.31943 33.7958 8.32626 33.4894 7.67658 33.2354C6.81035 32.8991 6.18308 32.4882 5.52595 31.8306C4.86881 31.1731 4.47303 30.5529 4.12206 29.6787C3.86816 29.0212 3.56199 28.0274 3.47985 26.2117C3.38277 24.2466 3.36784 23.6488 3.36784 18.665Z" fill="url(#paint2_linear_1_333)"/>
<defs>
<linearGradient id="paint0_linear_1_333" x1="31.5679" y1="2.8545" x2="4.5621" y2="35.942" gradientUnits="userSpaceOnUse">
<stop stop-color="#AE3DAE"/>
<stop offset="0.0468721" stop-color="#B23BA6"/>
<stop offset="0.1216" stop-color="#BD368E"/>
<stop offset="0.2148" stop-color="#CE2E69"/>
<stop offset="0.3216" stop-color="#E62335"/>
<stop offset="0.418" stop-color="#FF1800"/>
</linearGradient>
<linearGradient id="paint1_linear_1_333" x1="23.2415" y1="10.9701" x2="13.4309" y2="27.4553" gradientUnits="userSpaceOnUse">
<stop stop-color="#E12F6A"/>
<stop offset="0.1705" stop-color="#EA3751"/>
<stop offset="0.3563" stop-color="#F13D3E"/>
<stop offset="0.5467" stop-color="#F64133"/>
<stop offset="0.7469" stop-color="#F7422F"/>
<stop offset="0.7946" stop-color="#F74C2F"/>
<stop offset="0.8743" stop-color="#F7652F"/>
<stop offset="0.9757" stop-color="#F78F2E"/>
<stop offset="1" stop-color="#F79A2E"/>
</linearGradient>
<linearGradient id="paint2_linear_1_333" x1="27.1235" y1="-1.5368" x2="10.5984" y2="37.8531" gradientUnits="userSpaceOnUse">
<stop offset="0.2341" stop-color="#9E35A5" stop-opacity="0"/>
<stop offset="0.4512" stop-color="#D42F7F" stop-opacity="0.5"/>
<stop offset="0.7524" stop-color="#F7772E"/>
<stop offset="0.9624" stop-color="#FEF780"/>
</linearGradient>
</defs>
</svg>
